<svg viewBox="0 0 887.02 178.08" xmlns="http://www.w3.org/2000/svg"><g fill="#0b0204"><path d="M223.19 62.91h-17.13v51.27h41.24V99.52h-24.11zM275 61.82c-15.83 0-28 11.87-28 26.73v.14c0 14.87 12.09 26.58 27.89 26.58s28.05-11.86 28.05-26.72v-.15c-.09-14.87-12.18-26.58-27.94-26.58zm10.61 26.87c0 6-4.09 11.43-10.61 11.43s-10.8-5.49-10.8-11.57v-.15c0-6 4.1-11.42 10.6-11.42s10.77 5.48 10.77 11.57zm44.32-7.61c-5.43-1-6.81-1.91-6.81-3.29v-.16c0-1.25 1.18-2.11 3.74-2.11a26.91 26.91 0 0 1 15.38 5L350.57 69c-5.92-4.68-13.25-7-23.11-7-14.14 0-21.77 7.55-21.77 17.28v.13c0 10.84 10.12 14.14 21.61 16.48 5.49 1.11 7.1 1.9 7.1 3.37v.16c0 1.38-1.33 2.19-4.38 2.19a29.36 29.36 0 0 1-17.95-6l-9.16 10.91c6.52 5.72 15.9 8.64 26.29 8.64 13.77 0 22.63-6.6 22.63-17.37v-.13c0-10.36-8.83-14.17-21.9-16.58zM394 62.91h-19.63v51.27h19c20.71 0 31.11-10.77 31.11-25.92v-.16c.04-15.16-10.13-25.19-30.48-25.19zm13.25 25.71c0 7.39-5.06 10.61-12.89 10.61h-2.86V77.87h2.85c7.83 0 12.89 3.21 12.89 10.6zm38.79 5.94h25.05V82.18h-25.05v-5.2h26.87V62.91h-43.73v51.27h44.12v-14.06h-27.26zm31.86 19.62h17.12V97.41h23.95V84.09h-23.95v-6.53h25.77V62.91H477.9zm63.75-19.62h25.05V82.18h-25.05v-5.2h26.88V62.91H524.8v51.27h44.08v-14.06h-27.23zm66.1-9.01l-18.22-22.64h-16.04v51.27h16.98V90.52l19.05 23.66h15.23V62.91h-17zm45.62-4.47c-5.42-1-6.81-1.91-6.81-3.29v-.16c0-1.25 1.17-2.11 3.73-2.11a26.88 26.88 0 0 1 15.37 5L674 69c-5.93-4.68-13.27-7-23.14-7-14.13 0-21.75 7.55-21.75 17.28v.13c0 10.84 10.1 14.14 21.61 16.48 5.49 1.11 7.08 1.9 7.08 3.37v.16c0 1.38-1.3 2.19-4.38 2.19a29.4 29.4 0 0 1-18-6l-9.13 10.91c6.5 5.72 15.88 8.64 26.26 8.64 13.78 0 22.65-6.6 22.65-17.37v-.13c.07-10.36-8.73-14.17-21.83-16.58zm52.7-19.26c-15.81 0-28 11.87-28 26.73v.14c0 14.87 12.09 26.58 27.91 26.58s28-11.86 28-26.72v-.15c.02-14.87-12.09-26.58-27.91-26.58zm10.62 26.87c0 6-4.1 11.43-10.62 11.43s-10.75-5.49-10.75-11.57v-.15c0-6 4.11-11.42 10.62-11.42s10.75 5.48 10.75 11.57zm70.12-7.61v-.15c0-5.28-1.58-9.09-4.67-12.15-3.58-3.58-9.37-5.87-18.46-5.87h-25v51.27h17.12V99.52h3.66l9.66 14.66h19.55l-11.95-17.43c6.28-3 10.09-8.2 10.09-15.67zm-17 1.23c0 3.16-2.48 5-6.59 5h-7.39v-10h7.46c4 0 6.52 1.62 6.52 4.91zm38.02 12.25h25.05V82.18h-25.05v-5.2h26.88V62.91H791v51.27h44.09v-14.06h-27.26zm76.52 3.07c0-10.33-8.79-14.14-21.9-16.55-5.41-1-6.81-1.91-6.81-3.29v-.16c0-1.25 1.17-2.11 3.74-2.11a26.88 26.88 0 0 1 15.37 5L883.11 69c-6-4.68-13.26-7-23.15-7-14.14 0-21.74 7.55-21.74 17.28v.13c0 10.84 10.1 14.14 21.6 16.48 5.49 1.11 7.09 1.9 7.09 3.37v.16c0 1.38-1.3 2.19-4.39 2.19a29.25 29.25 0 0 1-17.92-6l-9.17 10.91c6.5 5.72 15.89 8.64 26.28 8.64 13.78 0 22.64-6.6 22.64-17.37zm-.17 10.84a2.85 2.85 0 0 0-2.84 2.85 2.84 2.84 0 1 0 5.68 0 2.84 2.84 0 0 0-2.84-2.85zm2.51 2.85a2.51 2.51 0 1 1-5 0 2.51 2.51 0 1 1 5 0z"/><path d="M885.66 110.78c0-.68-.52-1-1.3-1h-1.45v3h.92v-.87h.29l.58.87h1.07l-.71-1a1 1 0 0 0 .6-1zm-1.35.41h-.48v-.65h.5c.25 0 .4.11.4.32s-.15.33-.42.33zM102.06 51.1L81.13 37.8l-39.65 62.38 20.49 13c22.38 14.22 41.41 9.06 53.2-9.47l.85-1.34c11.77-18.53 8.14-37.23-13.96-51.27zm-5.79 39.24l-.8 1.24c-6.22 9.8-13.77 10.26-21.7 5.21l-2.22-1.4 18-28.39 2.23 1.42c7.93 5.08 10.77 12.02 4.49 21.92zM81.58 19l-5.12 8c-1.21 1.91.1 4.92 2.94 6.73L141.14 73c2.84 1.81 6.13 1.73 7.34-.19l5.13-8.05c1.21-1.91-.11-4.92-2.94-6.74L88.92 18.78c-2.84-1.78-6.12-1.73-7.34.22zm17.36 119.59l-62.67-37.73c-2.88-1.74-6.25-1.43-7.53.69l-5.39 9c-1.27 2.13 0 5.24 2.91 7l62.67 37.72c2.89 1.74 6.26 1.43 7.53-.69l5.4-9c1.28-2.13-.02-5.26-2.92-6.99z"/><path d="M125.73 89.17l10.85-15.89L117.18 60c7.21 9.19 9.92 19.07 8.55 29.17zM75.65 122.8l22.41 12.5 10-17.91c-9.06 6.23-20 8.31-32.41 5.41z"/><path d="M131.17 10.62a89 89 0 1 0 36.3 120.55 89 89 0 0 0-36.3-120.55zm24.28 112.63l-17.66-12.38 18.55 10.61c-.29.59-.59 1.18-.89 1.77zm2.3-4.89l-35-20.71a51.25 51.25 0 0 1-4.24 8.2l-.91 1.42a49.77 49.77 0 0 1-5.15 6.81l35.43 21a74.72 74.72 0 1 1 9.86-16.7z"/></g></svg>