<svg viewBox="0 0 178 178" xmlns="http://www.w3.org/2000/svg"><g fill="#0b0204"><path d="m102 51.1-20.9-13.3-39.7 62.4 20.5 13c22.4 14.2 41.4 9.1 53.2-9.5l.8-1.3c11.8-18.6 8.2-37.3-13.9-51.3zm-5.8 39.2-.8 1.2c-6.2 9.8-13.8 10.3-21.7 5.2l-2.2-1.4 18-28.4 2.2 1.4c8 5.2 10.8 12.1 4.5 22zm-14.7-71.3-5.1 8c-1.2 1.9.1 4.9 2.9 6.7l61.8 39.3c2.8 1.8 6.1 1.7 7.3-.2l5.1-8.1c1.2-1.9-.1-4.9-2.9-6.7l-61.7-39.2c-2.9-1.8-6.2-1.8-7.4.2zm17.4 119.6-62.7-37.7c-2.9-1.7-6.2-1.4-7.5.7l-5.4 9c-1.3 2.1 0 5.2 2.9 7l62.7 37.7c2.9 1.7 6.3 1.4 7.5-.7l5.4-9c1.3-2.2 0-5.3-2.9-7z"/><path d="m125.7 89.2 10.8-15.9-19.4-13.3c7.2 9.2 9.9 19.1 8.6 29.2zm-50.1 33.6 22.4 12.5 10-17.9c-9.1 6.2-20 8.3-32.4 5.4z"/><path d="m131.1 10.6c-43.3-23.2-97.3-7-120.5 36.3s-7 97.3 36.3 120.5 97.2 7 120.5-36.3c23.3-43.2 7-97.2-36.3-120.5zm24.3 112.6-17.7-12.4 18.6 10.6c-.3.7-.6 1.2-.9 1.8zm2.3-4.9-35-20.7c-1.2 2.9-2.6 5.6-4.2 8.2l-.9 1.4c-1.5 2.4-3.2 4.7-5.2 6.8l35.4 21c-25.4 32.5-72.4 38.3-104.9 12.9s-38.2-72.4-12.8-104.9 72.4-38.2 104.9-12.8c26.6 20.8 36 57 22.7 88.1z"/></g></svg>