<svg viewBox="0 0 886.9 178.1" xmlns="http://www.w3.org/2000/svg"><g fill="#fff"><path d="M222.9 63h-17v51h41v-14h-24zm52.1-1.2c-15.8 0-28.1 11.9-28.1 26.8v.1c0 14.9 12.1 26.6 27.9 26.6s28.1-11.9 28.1-26.7v-.2c0-14.9-12.1-26.6-27.9-26.6zm9.9 26.9c0 5.9-4 11.2-10.4 11.2-6.5 0-10.6-5.4-10.6-11.4v-.2c0-5.9 4-11.2 10.4-11.2 6.5 0 10.6 5.4 10.6 11.4zm44.9-7.7c-5.5-1-6.9-1.9-6.9-3.3v-.2c0-1.2 1.1-2.1 3.6-2.1 4.7 0 10.3 1.5 15 4.9l8.1-11.3c-5.8-4.6-12.9-6.8-22.5-6.8-13.8 0-21.2 7.4-21.2 16.9v.2c0 10.9 10.2 14.3 21.8 16.6 5.5 1.1 7.2 1.9 7.2 3.4v.2c0 1.3-1.3 2.1-4.3 2.1-5.9 0-12.1-1.7-17.5-5.9l-8.9 10.7c6.4 5.6 15.5 8.4 25.7 8.4 13.4 0 22.1-6.4 22.1-16.9v-.2c-.1-10.4-8.9-14.3-22.2-16.7zm64.7-18h-19.6v51h19c20.6 0 31-10.7 31-25.8V88c0-15-10.1-25-30.4-25zm12.4 25.6c0 7.3-5.1 10.4-13.1 10.4h-2.9V78h2.9c8 0 13.1 3.2 13.1 10.4zm22 25.4h44v-14h-27v-6h25V82h-25v-5h27V63h-44zm49 0h17V97h24V84h-24v-6h26V63h-43zm47 0h44v-14h-27v-6h25V82h-25v-5h27V63h-44zm83-28.5L589.7 63h-15.8v51h17V90.5L610 114h14.9V63h-17zm44.9-4.5c-5.5-1-6.9-1.9-6.9-3.3v-.2c0-1.2 1.1-2.1 3.6-2.1 4.6 0 10.3 1.5 15 4.9l8.1-11.3c-5.8-4.6-12.9-6.8-22.6-6.8-13.8 0-21.2 7.4-21.2 16.9v.2c0 11 10.2 14.3 21.8 16.7 5.6 1.1 7.2 1.9 7.2 3.4v.2c0 1.3-1.3 2.1-4.3 2.1-5.8 0-12.1-1.7-17.5-5.9l-8.9 10.6c6.3 5.6 15.5 8.4 25.6 8.4 13.4 0 22.1-6.4 22.1-16.9v-.2c.1-10.4-8.8-14.3-22-16.7zM706 61.8c-15.8 0-28.1 11.9-28.1 26.8v.1c0 14.9 12.1 26.6 27.9 26.6s28.1-11.9 28.1-26.7v-.2c0-14.9-12.1-26.6-27.9-26.6zm10.9 26.9c0 5.9-4 11.2-10.4 11.2-6.5 0-10.6-5.4-10.6-11.4v-.2c0-5.9 4-11.2 10.4-11.2 6.5 0 10.6 5.4 10.6 11.4zm70-8.1c-.1-5.1-1.6-8.8-4.6-11.7-3.6-3.6-9.3-5.8-18.4-5.8H739v51h17V99h3.7l9.7 15h19.5L777 96.2c6-3.1 9.8-8.2 9.9-15.6zm-17 1.4c0 3.2-2.5 5-6.6 5h-7.4V77h7.5c4 0 6.5 1.6 6.5 5zm17-1.9v.8zm4 33.9h44v-14h-27v-6h25V82h-25v-5h27V63h-44zm93-16.3c0-10.4-8.9-14.3-22.1-16.7-5.5-1-6.9-1.9-6.9-3.3v-.2c0-1.2 1.1-2.1 3.6-2.1 4.6 0 10.3 1.5 15 4.9l8.2-11.3c-5.8-4.6-12.9-6.9-22.6-6.9-13.8 0-21.2 7.4-21.2 16.9v.2c0 11 10.2 14.3 21.8 16.7 5.6 1.1 7.2 1.9 7.2 3.4v.2c0 1.3-1.3 2.1-4.3 2.1-5.8 0-12.1-1.7-17.5-5.9l-8.9 10.6c6.3 5.6 15.5 8.4 25.6 8.4 13.4 0 22.1-6.4 22.1-17zm3 13.1v0zm0 0c-.2-1.4-1.4-2.5-2.9-2.5-1.7 0-3 1.4-3 3s1.3 3 3 3c1.5 0 2.7-1.1 2.9-2.5-.2 1.1-1.2 2-2.4 2-1.4 0-2.5-1.1-2.5-2.5s1.1-2.5 2.5-2.5c1.2 0 2.2.9 2.4 2z"/><path d="M886.9 111.3c0 .2 0 .3-.1.5.1-.1.1-.3.1-.5zm-1.2-.3c0-.7-.5-1-1.3-1h-1.5v3h1v-1h.2l.6 1h1.1l-.7-1c.4-.2.6-.5.6-1zm-1.2-.3c.1-.1.2 0 .2.1 0 .2 0 .3-.2-.1zM102.1 51.1l-21-13.3-39.6 62.4 20.5 13c22.4 14.2 41.4 9.1 53.2-9.5l.9-1.3c11.7-18.6 8.1-37.3-14-51.3zm-5.8 39.2l-.8 1.2c-6.2 9.8-13.8 10.3-21.7 5.2l-2.2-1.4 18-28.3 2.2 1.4c7.9 5.1 10.8 12 4.5 21.9zM81.6 19l-5.1 8c-1.2 1.9.1 4.9 2.9 6.7L141.1 73c2.8 1.8 6.1 1.7 7.3-.2l5.1-8.1c1.2-1.9-.1-4.9-2.9-6.7L88.9 18.8c-2.8-1.8-6.1-1.7-7.3.2zm17.3 119.6l-62.7-37.7c-2.9-1.7-6.3-1.4-7.5.7l-5.4 9c-1.3 2.1 0 5.2 2.9 7l62.7 37.7c2.9 1.7 6.3 1.4 7.5-.7l5.4-8.9c1.3-2.2 0-5.4-2.9-7.1z"/><path d="M125.7 89.2l10.8-15.9L117.2 60c7.2 9.2 9.9 19.1 8.5 29.2zm-50.1 33.6L98 135.3l10-17.9c-9 6.2-19.9 8.3-32.4 5.4z"/><path d="M131.2 10.6c-43.3-23.3-97.3-7-120.6 36.3s-7 97.3 36.3 120.5c43.3 23.3 97.3 7 120.6-36.3 23.2-43.2 7-97.2-36.3-120.5zm24.2 112.6l-17.7-12.4 18.6 10.6c-.2.7-.5 1.3-.9 1.8zm2.4-4.8l-35-20.7c-1.1 2.7-2.5 5.5-4.2 8.2l-.9 1.4c-1.6 2.5-3.3 4.8-5.2 6.8l35.4 21c-22 28.2-61.7 37.3-94.2 19.8C17.3 135.3 3.7 90 23.2 53.7 42.8 17.3 88 3.7 124.4 23.2c34.4 18.5 48.4 60 33.4 95.2z"/></g></svg>